<svg xmlns="http://www.w3.org/2000/svg" width="204" height="42" fill="none" viewBox="0 0 204 42"><path fill="white" d="M18.68 0c10.24 0 15.74 5.38 17.5 14.5l-7.7.39c-1.03-5.27-4.25-8.5-9.8-8.5-6.85 0-11.1 5.72-11.1 14.67 0 9.05 4.36 14.54 11.04 14.54 6 0 9.17-3.45 10.08-9.22l7.7.4C34.8 36.22 28.76 42 18.62 42 7.64 42 0 34.19 0 21.06 0 8.16 7.42 0 18.68 0m65.64 10.19c8.6 0 13.08 4.53 13.08 12.56v10.99c0 1.64.56 2.09 1.7 2.09h.96v5.26c-.51.12-1.64.23-2.66.23-3.29 0-5.72-1.19-6.29-4.87-1.52 3.23-5.37 5.32-10.3 5.32-6.34 0-10.53-3-10.53-8.26 0-5.2 3.23-7.98 9.85-9.28l10.02-1.98c0-4.25-1.98-6.46-5.83-6.46-3.5 0-5.49 1.64-6.17 4.7l-7.36-.34c1.2-6.34 6.06-9.96 13.53-9.96M183.2.93a20.09 20.09 0 0 1 0 40.17h-37.3a20.1 20.1 0 0 1 0-40.17zM47.65 14.89c1.64-3.17 4.87-4.7 8.6-4.7 6.68 0 10.25 4.75 10.25 11.49v19.41h-7.25V23.43c0-4.92-1.64-7.35-5.15-7.35-3.96 0-6.45 2.6-6.45 7.52v17.5H40.4V.9h7.25zm63.51-4.02h7.98v5.6h-7.98v15.29c0 2.83 1.2 3.73 3.74 3.73h4.24v5.6h-6.45c-6 0-8.77-2.66-8.77-8.66V16.47h-4.76v-5.6h4.76V3.79h7.24zm34.74-5.64a15.79 15.79 0 0 0 0 31.57h37.3a15.78 15.78 0 1 0 0-31.57zM82.34 28.76c-3.23.62-4.53 1.98-4.53 4.07 0 2.38 1.59 3.68 4.47 3.68 4.82 0 7.87-3.06 7.87-7.64v-1.7zm64.09-17.79c4.3 0 7.24 2.64 7.7 6.53l-4.13.22a3.5 3.5 0 0 0-3.68-3.32c-1.8 0-3.07.92-3 2.34.06 1.63 1.97 2.18 4.03 2.7 4.33.95 7.08 2.8 7.08 5.88 0 3.67-3.24 5.74-7.4 5.74-4.71 0-8.03-2.61-8.3-6.7l4.16-.19c.36 2.07 1.83 3.43 4.25 3.43 1.85 0 3.1-.73 3.07-2.15-.02-1.41-1.22-2.23-4.24-2.97-4.2-1-6.89-2.7-6.89-5.8 0-3.5 2.94-5.71 7.35-5.71m16.96.43c6.26 0 9.78 3.49 9.78 9.7 0 6.17-3.46 9.63-9.61 9.63h-6.84V11.4zm16.15 8.44 7.03-8.44h4.81l-7.1 8.52 7.54 10.81h-4.71l-5.55-8.03-2.02 2.34v5.7h-4.32V11.4h4.32zm-18.68 7.4h2.53c3.76 0 5.56-1.98 5.56-6.17 0-4.2-1.8-6.18-5.56-6.18h-2.53z" style="fill:white;fill-opacity:1;"/></svg>