<svg xmlns="http://www.w3.org/2000/svg" width="24" height="24" viewBox="0 0 24 24" shape-rendering="crispEdges"><path fill="white" d="M6.5 0.5m-0.35,0a0.35,0.35 0 1,0 0.7,0a0.35,0.35 0 1,0 -0.7,0M7.5 0.5m-0.35,0a0.35,0.35 0 1,0 0.7,0a0.35,0.35 0 1,0 -0.7,0M8.5 0.5m-0.35,0a0.35,0.35 0 1,0 0.7,0a0.35,0.35 0 1,0 -0.7,0M9.5 0.5m-0.35,0a0.35,0.35 0 1,0 0.7,0a0.35,0.35 0 1,0 -0.7,0M10.5 0.5m-0.35,0a0.35,0.35 0 1,0 0.7,0a0.35,0.35 0 1,0 -0.7,0M11.5 0.5m-0.35,0a0.35,0.35 0 1,0 0.7,0a0.35,0.35 0 1,0 -0.7,0M12.5 0.5m-0.35,0a0.35,0.35 0 1,0 0.7,0a0.35,0.35 0 1,0 -0.7,0M4.5 1.5m-0.35,0a0.35,0.35 0 1,0 0.7,0a0.35,0.35 0 1,0 -0.7,0M5.5 1.5m-0.35,0a0.35,0.35 0 1,0 0.7,0a0.35,0.35 0 1,0 -0.7,0M6.5 1.5m-0.35,0a0.35,0.35 0 1,0 0.7,0a0.35,0.35 0 1,0 -0.7,0M7.5 1.5m-0.35,0a0.35,0.35 0 1,0 0.7,0a0.35,0.35 0 1,0 -0.7,0M8.5 1.5m-0.35,0a0.35,0.35 0 1,0 0.7,0a0.35,0.35 0 1,0 -0.7,0M9.5 1.5m-0.35,0a0.35,0.35 0 1,0 0.7,0a0.35,0.35 0 1,0 -0.7,0M10.5 1.5m-0.35,0a0.35,0.35 0 1,0 0.7,0a0.35,0.35 0 1,0 -0.7,0M11.5 1.5m-0.35,0a0.35,0.35 0 1,0 0.7,0a0.35,0.35 0 1,0 -0.7,0M12.5 1.5m-0.35,0a0.35,0.35 0 1,0 0.7,0a0.35,0.35 0 1,0 -0.7,0M13.5 1.5m-0.35,0a0.35,0.35 0 1,0 0.7,0a0.35,0.35 0 1,0 -0.7,0M14.5 1.5m-0.35,0a0.35,0.35 0 1,0 0.7,0a0.35,0.35 0 1,0 -0.7,0M3.5 2.5m-0.35,0a0.35,0.35 0 1,0 0.7,0a0.35,0.35 0 1,0 -0.7,0M4.5 2.5m-0.35,0a0.35,0.35 0 1,0 0.7,0a0.35,0.35 0 1,0 -0.7,0M5.5 2.5m-0.35,0a0.35,0.35 0 1,0 0.7,0a0.35,0.35 0 1,0 -0.7,0M6.5 2.5m-0.35,0a0.35,0.35 0 1,0 0.7,0a0.35,0.35 0 1,0 -0.7,0M12.5 2.5m-0.35,0a0.35,0.35 0 1,0 0.7,0a0.35,0.35 0 1,0 -0.7,0M13.5 2.5m-0.35,0a0.35,0.35 0 1,0 0.7,0a0.35,0.35 0 1,0 -0.7,0M14.5 2.5m-0.35,0a0.35,0.35 0 1,0 0.7,0a0.35,0.35 0 1,0 -0.7,0M15.5 2.5m-0.35,0a0.35,0.35 0 1,0 0.7,0a0.35,0.35 0 1,0 -0.7,0M2.5 3.5m-0.35,0a0.35,0.35 0 1,0 0.7,0a0.35,0.35 0 1,0 -0.7,0M3.5 3.5m-0.35,0a0.35,0.35 0 1,0 0.7,0a0.35,0.35 0 1,0 -0.7,0M4.5 3.5m-0.35,0a0.35,0.35 0 1,0 0.7,0a0.35,0.35 0 1,0 -0.7,0M14.5 3.5m-0.35,0a0.35,0.35 0 1,0 0.7,0a0.35,0.35 0 1,0 -0.7,0M15.5 3.5m-0.35,0a0.35,0.35 0 1,0 0.7,0a0.35,0.35 0 1,0 -0.7,0M16.5 3.5m-0.35,0a0.35,0.35 0 1,0 0.7,0a0.35,0.35 0 1,0 -0.7,0M1.5 4.5m-0.35,0a0.35,0.35 0 1,0 0.7,0a0.35,0.35 0 1,0 -0.7,0M2.5 4.5m-0.35,0a0.35,0.35 0 1,0 0.7,0a0.35,0.35 0 1,0 -0.7,0M3.5 4.5m-0.35,0a0.35,0.35 0 1,0 0.7,0a0.35,0.35 0 1,0 -0.7,0M15.5 4.5m-0.35,0a0.35,0.35 0 1,0 0.7,0a0.35,0.35 0 1,0 -0.7,0M16.5 4.5m-0.35,0a0.35,0.35 0 1,0 0.7,0a0.35,0.35 0 1,0 -0.7,0M17.5 4.5m-0.35,0a0.35,0.35 0 1,0 0.7,0a0.35,0.35 0 1,0 -0.7,0M1.5 5.5m-0.35,0a0.35,0.35 0 1,0 0.7,0a0.35,0.35 0 1,0 -0.7,0M2.5 5.5m-0.35,0a0.35,0.35 0 1,0 0.7,0a0.35,0.35 0 1,0 -0.7,0M16.5 5.5m-0.35,0a0.35,0.35 0 1,0 0.7,0a0.35,0.35 0 1,0 -0.7,0M17.5 5.5m-0.35,0a0.35,0.35 0 1,0 0.7,0a0.35,0.35 0 1,0 -0.7,0M0.5 6.5m-0.35,0a0.35,0.35 0 1,0 0.7,0a0.35,0.35 0 1,0 -0.7,0M1.5 6.5m-0.35,0a0.35,0.35 0 1,0 0.7,0a0.35,0.35 0 1,0 -0.7,0M17.5 6.5m-0.35,0a0.35,0.35 0 1,0 0.7,0a0.35,0.35 0 1,0 -0.7,0M18.5 6.5m-0.35,0a0.35,0.35 0 1,0 0.7,0a0.35,0.35 0 1,0 -0.7,0M0.5 7.5m-0.35,0a0.35,0.35 0 1,0 0.7,0a0.35,0.35 0 1,0 -0.7,0M1.5 7.5m-0.35,0a0.35,0.35 0 1,0 0.7,0a0.35,0.35 0 1,0 -0.7,0M17.5 7.5m-0.35,0a0.35,0.35 0 1,0 0.7,0a0.35,0.35 0 1,0 -0.7,0M18.5 7.5m-0.35,0a0.35,0.35 0 1,0 0.7,0a0.35,0.35 0 1,0 -0.7,0M0.5 8.5m-0.35,0a0.35,0.35 0 1,0 0.7,0a0.35,0.35 0 1,0 -0.7,0M1.5 8.5m-0.35,0a0.35,0.35 0 1,0 0.7,0a0.35,0.35 0 1,0 -0.7,0M17.5 8.5m-0.35,0a0.35,0.35 0 1,0 0.7,0a0.35,0.35 0 1,0 -0.7,0M18.5 8.5m-0.35,0a0.35,0.35 0 1,0 0.7,0a0.35,0.35 0 1,0 -0.7,0M0.5 9.5m-0.35,0a0.35,0.35 0 1,0 0.7,0a0.35,0.35 0 1,0 -0.7,0M1.5 9.5m-0.35,0a0.35,0.35 0 1,0 0.7,0a0.35,0.35 0 1,0 -0.7,0M17.5 9.5m-0.35,0a0.35,0.35 0 1,0 0.7,0a0.35,0.35 0 1,0 -0.7,0M18.5 9.5m-0.35,0a0.35,0.35 0 1,0 0.7,0a0.35,0.35 0 1,0 -0.7,0M0.5 10.5m-0.35,0a0.35,0.35 0 1,0 0.7,0a0.35,0.35 0 1,0 -0.7,0M1.5 10.5m-0.35,0a0.35,0.35 0 1,0 0.7,0a0.35,0.35 0 1,0 -0.7,0M17.5 10.5m-0.35,0a0.35,0.35 0 1,0 0.7,0a0.35,0.35 0 1,0 -0.7,0M18.5 10.5m-0.35,0a0.35,0.35 0 1,0 0.7,0a0.35,0.35 0 1,0 -0.7,0M0.5 11.5m-0.35,0a0.35,0.35 0 1,0 0.7,0a0.35,0.35 0 1,0 -0.7,0M1.5 11.5m-0.35,0a0.35,0.35 0 1,0 0.7,0a0.35,0.35 0 1,0 -0.7,0M17.5 11.5m-0.35,0a0.35,0.35 0 1,0 0.7,0a0.35,0.35 0 1,0 -0.7,0M18.5 11.5m-0.35,0a0.35,0.35 0 1,0 0.7,0a0.35,0.35 0 1,0 -0.7,0M0.5 12.5m-0.35,0a0.35,0.35 0 1,0 0.7,0a0.35,0.35 0 1,0 -0.7,0M1.5 12.5m-0.35,0a0.35,0.35 0 1,0 0.7,0a0.35,0.35 0 1,0 -0.7,0M16.5 12.5m-0.35,0a0.35,0.35 0 1,0 0.7,0a0.35,0.35 0 1,0 -0.7,0M17.5 12.5m-0.35,0a0.35,0.35 0 1,0 0.7,0a0.35,0.35 0 1,0 -0.7,0M18.5 12.5m-0.35,0a0.35,0.35 0 1,0 0.7,0a0.35,0.35 0 1,0 -0.7,0M1.5 13.5m-0.35,0a0.35,0.35 0 1,0 0.7,0a0.35,0.35 0 1,0 -0.7,0M2.5 13.5m-0.35,0a0.35,0.35 0 1,0 0.7,0a0.35,0.35 0 1,0 -0.7,0M16.5 13.5m-0.35,0a0.35,0.35 0 1,0 0.7,0a0.35,0.35 0 1,0 -0.7,0M17.5 13.5m-0.35,0a0.35,0.35 0 1,0 0.7,0a0.35,0.35 0 1,0 -0.7,0M1.5 14.5m-0.35,0a0.35,0.35 0 1,0 0.7,0a0.35,0.35 0 1,0 -0.7,0M2.5 14.5m-0.35,0a0.35,0.35 0 1,0 0.7,0a0.35,0.35 0 1,0 -0.7,0M3.5 14.5m-0.35,0a0.35,0.35 0 1,0 0.7,0a0.35,0.35 0 1,0 -0.7,0M15.5 14.5m-0.35,0a0.35,0.35 0 1,0 0.7,0a0.35,0.35 0 1,0 -0.7,0M16.5 14.5m-0.35,0a0.35,0.35 0 1,0 0.7,0a0.35,0.35 0 1,0 -0.7,0M17.5 14.5m-0.35,0a0.35,0.35 0 1,0 0.7,0a0.35,0.35 0 1,0 -0.7,0M2.5 15.5m-0.35,0a0.35,0.35 0 1,0 0.7,0a0.35,0.35 0 1,0 -0.7,0M3.5 15.5m-0.35,0a0.35,0.35 0 1,0 0.7,0a0.35,0.35 0 1,0 -0.7,0M4.5 15.5m-0.35,0a0.35,0.35 0 1,0 0.7,0a0.35,0.35 0 1,0 -0.7,0M14.5 15.5m-0.35,0a0.35,0.35 0 1,0 0.7,0a0.35,0.35 0 1,0 -0.7,0M15.5 15.5m-0.35,0a0.35,0.35 0 1,0 0.7,0a0.35,0.35 0 1,0 -0.7,0M16.5 15.5m-0.35,0a0.35,0.35 0 1,0 0.7,0a0.35,0.35 0 1,0 -0.7,0M3.5 16.5m-0.35,0a0.35,0.35 0 1,0 0.7,0a0.35,0.35 0 1,0 -0.7,0M4.5 16.5m-0.35,0a0.35,0.35 0 1,0 0.7,0a0.35,0.35 0 1,0 -0.7,0M5.5 16.5m-0.35,0a0.35,0.35 0 1,0 0.7,0a0.35,0.35 0 1,0 -0.7,0M6.5 16.5m-0.35,0a0.35,0.35 0 1,0 0.7,0a0.35,0.35 0 1,0 -0.7,0M13.5 16.5m-0.35,0a0.35,0.35 0 1,0 0.7,0a0.35,0.35 0 1,0 -0.7,0M14.5 16.5m-0.35,0a0.35,0.35 0 1,0 0.7,0a0.35,0.35 0 1,0 -0.7,0M15.5 16.5m-0.35,0a0.35,0.35 0 1,0 0.7,0a0.35,0.35 0 1,0 -0.7,0M16.5 16.5m-0.35,0a0.35,0.35 0 1,0 0.7,0a0.35,0.35 0 1,0 -0.7,0M17.5 16.5m-0.35,0a0.35,0.35 0 1,0 0.7,0a0.35,0.35 0 1,0 -0.7,0M4.5 17.5m-0.35,0a0.35,0.35 0 1,0 0.7,0a0.35,0.35 0 1,0 -0.7,0M5.5 17.5m-0.35,0a0.35,0.35 0 1,0 0.7,0a0.35,0.35 0 1,0 -0.7,0M6.5 17.5m-0.35,0a0.35,0.35 0 1,0 0.7,0a0.35,0.35 0 1,0 -0.7,0M7.5 17.5m-0.35,0a0.35,0.35 0 1,0 0.7,0a0.35,0.35 0 1,0 -0.7,0M8.5 17.5m-0.35,0a0.35,0.35 0 1,0 0.7,0a0.35,0.35 0 1,0 -0.7,0M9.5 17.5m-0.35,0a0.35,0.35 0 1,0 0.7,0a0.35,0.35 0 1,0 -0.7,0M10.5 17.5m-0.35,0a0.35,0.35 0 1,0 0.7,0a0.35,0.35 0 1,0 -0.7,0M11.5 17.5m-0.35,0a0.35,0.35 0 1,0 0.7,0a0.35,0.35 0 1,0 -0.7,0M12.5 17.5m-0.35,0a0.35,0.35 0 1,0 0.7,0a0.35,0.35 0 1,0 -0.7,0M13.5 17.5m-0.35,0a0.35,0.35 0 1,0 0.7,0a0.35,0.35 0 1,0 -0.7,0M14.5 17.5m-0.35,0a0.35,0.35 0 1,0 0.7,0a0.35,0.35 0 1,0 -0.7,0M16.5 17.5m-0.35,0a0.35,0.35 0 1,0 0.7,0a0.35,0.35 0 1,0 -0.7,0M17.5 17.5m-0.35,0a0.35,0.35 0 1,0 0.7,0a0.35,0.35 0 1,0 -0.7,0M18.5 17.5m-0.35,0a0.35,0.35 0 1,0 0.7,0a0.35,0.35 0 1,0 -0.7,0M6.5 18.5m-0.35,0a0.35,0.35 0 1,0 0.7,0a0.35,0.35 0 1,0 -0.7,0M7.5 18.5m-0.35,0a0.35,0.35 0 1,0 0.7,0a0.35,0.35 0 1,0 -0.7,0M8.5 18.5m-0.35,0a0.35,0.35 0 1,0 0.7,0a0.35,0.35 0 1,0 -0.7,0M9.5 18.5m-0.35,0a0.35,0.35 0 1,0 0.7,0a0.35,0.35 0 1,0 -0.7,0M10.5 18.5m-0.35,0a0.35,0.35 0 1,0 0.7,0a0.35,0.35 0 1,0 -0.7,0M11.5 18.5m-0.35,0a0.35,0.35 0 1,0 0.7,0a0.35,0.35 0 1,0 -0.7,0M12.5 18.5m-0.35,0a0.35,0.35 0 1,0 0.7,0a0.35,0.35 0 1,0 -0.7,0M17.5 18.5m-0.35,0a0.35,0.35 0 1,0 0.7,0a0.35,0.35 0 1,0 -0.7,0M18.5 18.5m-0.35,0a0.35,0.35 0 1,0 0.7,0a0.35,0.35 0 1,0 -0.7,0M19.5 18.5m-0.35,0a0.35,0.35 0 1,0 0.7,0a0.35,0.35 0 1,0 -0.7,0M18.5 19.5m-0.35,0a0.35,0.35 0 1,0 0.7,0a0.35,0.35 0 1,0 -0.7,0M19.5 19.5m-0.35,0a0.35,0.35 0 1,0 0.7,0a0.35,0.35 0 1,0 -0.7,0M20.5 19.5m-0.35,0a0.35,0.35 0 1,0 0.7,0a0.35,0.35 0 1,0 -0.7,0M19.5 20.5m-0.35,0a0.35,0.35 0 1,0 0.7,0a0.35,0.35 0 1,0 -0.7,0M20.5 20.5m-0.35,0a0.35,0.35 0 1,0 0.7,0a0.35,0.35 0 1,0 -0.7,0M21.5 20.5m-0.35,0a0.35,0.35 0 1,0 0.7,0a0.35,0.35 0 1,0 -0.7,0M20.5 21.5m-0.35,0a0.35,0.35 0 1,0 0.7,0a0.35,0.35 0 1,0 -0.7,0M21.5 21.5m-0.35,0a0.35,0.35 0 1,0 0.7,0a0.35,0.35 0 1,0 -0.7,0M22.5 21.5m-0.35,0a0.35,0.35 0 1,0 0.7,0a0.35,0.35 0 1,0 -0.7,0M21.5 22.5m-0.35,0a0.35,0.35 0 1,0 0.7,0a0.35,0.35 0 1,0 -0.7,0"/></svg>